<?xml version="1.0" encoding="UTF-8"?>
<svg xmlns="http://www.w3.org/2000/svg" xmlns:xlink="http://www.w3.org/1999/xlink" viewBox="0 0 100 100">
    <!-- Імпортуємо текстури -->
    <defs>
        <pattern id="fieldTexture" width="20" height="20" patternUnits="userSpaceOnUse">
            <rect width="20" height="20" fill="#7cb342"/>
            <circle cx="5" cy="5" r="1" fill="#558b2f"/>
            <circle cx="15" cy="15" r="1" fill="#558b2f"/>
            <path d="M10,2 L12,6 L8,6 Z" fill="#558b2f"/>
        </pattern>

        <pattern id="cityTexture" width="30" height="30" patternUnits="userSpaceOnUse">
            <rect width="30" height="30" fill="#8d6e63"/>
            <rect x="0" y="0" width="15" height="15" fill="#6d4c41"/>
            <rect x="15" y="15" width="15" height="15" fill="#6d4c41"/>
            <path d="M0,0 L5,0 L5,10 L0,10 Z" fill="#4e342e"/>
            <path d="M20,20 L25,20 L25,30 L20,30 Z" fill="#4e342e"/>
        </pattern>

        <pattern id="roadTexture" width="20" height="20" patternUnits="userSpaceOnUse">
            <rect width="20" height="20" fill="#bdbdbd"/>
            <rect x="0" y="0" width="10" height="10" fill="#9e9e9e"/>
            <rect x="10" y="10" width="10" height="10" fill="#9e9e9e"/>
            <line x1="0" y1="0" x2="20" y2="20" stroke="#757575" stroke-width="1"/>
            <line x1="20" y1="0" x2="0" y2="20" stroke="#757575" stroke-width="1"/>
        </pattern>
    </defs>

    <!-- Фон поля -->
    <rect width="100" height="100" fill="url(#fieldTexture)"/>

    <!-- Місто (діагонально) -->
    <path d="M10,0 h90 v90 
             Q 90,75 80,65
             Q 65,40 35,25
             Q 20,15 15,10 Z" 
          fill="url(#cityTexture)"/>
    
    <!-- Стіни міста -->
    <path d="M15,0 v15 h10 v-8 h10 v8 h10 v-15" fill="#4e342e"/>
    <path d="M85,15 h15 v15 h-8 v10 h8 v10" fill="#4e342e"/>
    
    <!-- Обрамлення міста -->
    <path d="M15,10 Q 20,15 35,25 Q 65,40 80,65 Q 90,75 100,90" 
          stroke="#3e2723" stroke-width="3" fill="none"/>

    <!-- Додаткове обрамлення для чіткої границі -->
    <path d="M10,0 L15,10" 
          stroke="#3e2723" stroke-width="3" fill="none"/>

    <!-- Дорога внизу -->
    <path d="M40,65 v35 h20 v-35 Z" fill="url(#roadTexture)"/>
    <path d="M40,65 v35" stroke="#616161" stroke-width="2"/>
    <path d="M60,65 v35" stroke="#616161" stroke-width="2"/>

    <!-- Декоративні елементи (будівлі) -->
    <rect x="35" y="8" width="12" height="12" fill="#4e342e"/>
    <rect x="70" y="25" width="12" height="12" fill="#4e342e"/>
    <circle cx="55" cy="12" r="4" fill="#4e342e"/>
    <circle cx="80" cy="45" r="4" fill="#4e342e"/>
</svg> 