<?xml version="1.0" encoding="UTF-8"?>
<svg xmlns="http://www.w3.org/2000/svg" xmlns:xlink="http://www.w3.org/1999/xlink">
    <defs>
        <!-- Текстура поля -->
        <pattern id="fieldTexture" width="20" height="20" patternUnits="userSpaceOnUse">
            <rect width="20" height="20" fill="#7cb342"/>
            <circle cx="5" cy="5" r="1" fill="#558b2f"/>
            <circle cx="15" cy="15" r="1" fill="#558b2f"/>
            <path d="M10,2 L12,6 L8,6 Z" fill="#558b2f"/>
        </pattern>

        <!-- Текстура міста -->
        <pattern id="cityTexture" width="30" height="30" patternUnits="userSpaceOnUse">
            <rect width="30" height="30" fill="#8d6e63"/>
            <rect x="0" y="0" width="15" height="15" fill="#6d4c41"/>
            <rect x="15" y="15" width="15" height="15" fill="#6d4c41"/>
            <path d="M0,0 L5,0 L5,10 L0,10 Z" fill="#4e342e"/>
            <path d="M20,20 L25,20 L25,30 L20,30 Z" fill="#4e342e"/>
        </pattern>

        <!-- Текстура дороги -->
        <pattern id="roadTexture" width="20" height="20" patternUnits="userSpaceOnUse">
            <rect width="20" height="20" fill="#bdbdbd"/>
            <rect x="0" y="0" width="10" height="10" fill="#9e9e9e"/>
            <rect x="10" y="10" width="10" height="10" fill="#9e9e9e"/>
            <line x1="0" y1="0" x2="20" y2="20" stroke="#757575" stroke-width="1"/>
            <line x1="20" y1="0" x2="0" y2="20" stroke="#757575" stroke-width="1"/>
        </pattern>

        <!-- Стіна міста -->
        <g id="cityWall">
            <path d="M0,0 h100 v30 h-100 Z" fill="url(#cityTexture)"/>
            <path d="M10,0 v20 h10 v-10 h10 v10 h10 v-20" fill="#4e342e"/>
            <rect x="0" y="25" width="100" height="5" fill="#3e2723"/>
        </g>

        <!-- Дорога -->
        <g id="road">
            <path d="M40,0 v100 h20 v-100 Z" fill="url(#roadTexture)"/>
            <path d="M40,0 v100" stroke="#616161" stroke-width="2"/>
            <path d="M60,0 v100" stroke="#616161" stroke-width="2"/>
        </g>
    </defs>
</svg> 